<mxfile host="app.diagrams.net" modified="2022-07-18T07:06:34.157Z" agent="5.0 (Windows NT 10.0; Win64; x64) AppleWebKit/537.36 (KHTML, like Gecko) Chrome/103.0.0.0 Safari/537.36" etag="UitqlhUNcnrGwXRowaIC" version="20.1.1" type="github">
  <diagram id="XRXNF1nQDL_sSssmxy0N" name="Page-1">
    <mxGraphModel dx="1209" dy="627" grid="1" gridSize="10" guides="1" tooltips="1" connect="1" arrows="1" fold="1" page="1" pageScale="1" pageWidth="850" pageHeight="1100" math="0" shadow="0">
      <root>
        <mxCell id="0" />
        <mxCell id="1" parent="0" />
        <mxCell id="KwuwYQE3O93vve9rL2iN-1" value="Actor" style="shape=umlActor;verticalLabelPosition=bottom;verticalAlign=top;html=1;outlineConnect=0;" parent="1" vertex="1">
          <mxGeometry x="550" y="210" width="30" height="60" as="geometry" />
        </mxCell>
        <mxCell id="KwuwYQE3O93vve9rL2iN-2" value="Actor" style="shape=umlActor;verticalLabelPosition=bottom;verticalAlign=top;html=1;outlineConnect=0;" parent="1" vertex="1">
          <mxGeometry x="150" y="202.5" width="30" height="60" as="geometry" />
        </mxCell>
        <mxCell id="KwuwYQE3O93vve9rL2iN-3" value="Suplier" style="shape=umlActor;verticalLabelPosition=bottom;verticalAlign=top;html=1;outlineConnect=0;" parent="1" vertex="1">
          <mxGeometry x="356.25" y="370" width="30" height="60" as="geometry" />
        </mxCell>
        <mxCell id="KwuwYQE3O93vve9rL2iN-7" value="" style="endArrow=classic;html=1;rounded=0;" parent="1" edge="1">
          <mxGeometry width="50" height="50" relative="1" as="geometry">
            <mxPoint x="170" y="239.5" as="sourcePoint" />
            <mxPoint x="260" y="239.5" as="targetPoint" />
            <Array as="points" />
          </mxGeometry>
        </mxCell>
        <mxCell id="KwuwYQE3O93vve9rL2iN-9" value="Admin" style="text;html=1;align=center;verticalAlign=middle;resizable=0;points=[];autosize=1;strokeColor=none;fillColor=none;" parent="1" vertex="1">
          <mxGeometry x="130" y="170" width="60" height="30" as="geometry" />
        </mxCell>
        <mxCell id="KwuwYQE3O93vve9rL2iN-15" value="Inventory Manager" style="text;html=1;align=center;verticalAlign=middle;resizable=0;points=[];autosize=1;strokeColor=none;fillColor=none;" parent="1" vertex="1">
          <mxGeometry x="490" y="180" width="120" height="30" as="geometry" />
        </mxCell>
        <mxCell id="KwuwYQE3O93vve9rL2iN-16" value="Update Invoice" style="ellipse;whiteSpace=wrap;html=1;" parent="1" vertex="1">
          <mxGeometry x="305" y="120" width="115" height="30" as="geometry" />
        </mxCell>
        <mxCell id="KwuwYQE3O93vve9rL2iN-17" value="" style="endArrow=classic;html=1;rounded=0;entryX=0.068;entryY=0.859;entryDx=0;entryDy=0;entryPerimeter=0;" parent="1" target="KwuwYQE3O93vve9rL2iN-16" edge="1">
          <mxGeometry width="50" height="50" relative="1" as="geometry">
            <mxPoint x="180" y="230" as="sourcePoint" />
            <mxPoint x="460" y="300" as="targetPoint" />
            <Array as="points">
              <mxPoint x="313" y="60" />
            </Array>
          </mxGeometry>
        </mxCell>
        <mxCell id="KwuwYQE3O93vve9rL2iN-18" value="" style="endArrow=classic;html=1;rounded=0;" parent="1" edge="1">
          <mxGeometry width="50" height="50" relative="1" as="geometry">
            <mxPoint x="370" y="362.5" as="sourcePoint" />
            <mxPoint x="370" y="263" as="targetPoint" />
            <Array as="points">
              <mxPoint x="370" y="340" />
              <mxPoint x="370" y="320" />
              <mxPoint x="370" y="310" />
            </Array>
          </mxGeometry>
        </mxCell>
        <mxCell id="KwuwYQE3O93vve9rL2iN-23" value="LogIn/LogOut" style="ellipse;whiteSpace=wrap;html=1;" parent="1" vertex="1">
          <mxGeometry x="280" y="217.5" width="182.5" height="45" as="geometry" />
        </mxCell>
        <mxCell id="KwuwYQE3O93vve9rL2iN-27" value="" style="endArrow=classic;html=1;rounded=0;" parent="1" target="KwuwYQE3O93vve9rL2iN-16" edge="1">
          <mxGeometry width="50" height="50" relative="1" as="geometry">
            <mxPoint x="365" y="390" as="sourcePoint" />
            <mxPoint x="370" y="140" as="targetPoint" />
            <Array as="points">
              <mxPoint x="365" y="390" />
              <mxPoint x="170" y="340" />
              <mxPoint x="130" y="330" />
              <mxPoint x="200" y="290" />
              <mxPoint x="360" y="170" />
            </Array>
          </mxGeometry>
        </mxCell>
        <mxCell id="KwuwYQE3O93vve9rL2iN-29" style="edgeStyle=orthogonalEdgeStyle;rounded=0;orthogonalLoop=1;jettySize=auto;html=1;exitX=0.5;exitY=0.5;exitDx=0;exitDy=0;exitPerimeter=0;entryX=0;entryY=0.3333333333333333;entryDx=0;entryDy=0;entryPerimeter=0;" parent="1" source="KwuwYQE3O93vve9rL2iN-3" target="KwuwYQE3O93vve9rL2iN-3" edge="1">
          <mxGeometry relative="1" as="geometry" />
        </mxCell>
        <mxCell id="KwuwYQE3O93vve9rL2iN-32" value="" style="endArrow=classic;html=1;rounded=0;entryX=0.771;entryY=1.067;entryDx=0;entryDy=0;entryPerimeter=0;" parent="1" target="KwuwYQE3O93vve9rL2iN-16" edge="1">
          <mxGeometry width="50" height="50" relative="1" as="geometry">
            <mxPoint x="560" y="240" as="sourcePoint" />
            <mxPoint x="470" y="290" as="targetPoint" />
          </mxGeometry>
        </mxCell>
        <mxCell id="KwuwYQE3O93vve9rL2iN-34" value="" style="endArrow=classic;html=1;rounded=0;exitX=0.5;exitY=0.5;exitDx=0;exitDy=0;exitPerimeter=0;" parent="1" source="KwuwYQE3O93vve9rL2iN-1" edge="1">
          <mxGeometry width="50" height="50" relative="1" as="geometry">
            <mxPoint x="420" y="340" as="sourcePoint" />
            <mxPoint x="460" y="240" as="targetPoint" />
            <Array as="points">
              <mxPoint x="460" y="240" />
            </Array>
          </mxGeometry>
        </mxCell>
        <mxCell id="KwuwYQE3O93vve9rL2iN-36" value="Product Update" style="ellipse;whiteSpace=wrap;html=1;" parent="1" vertex="1">
          <mxGeometry x="300" y="20" width="120" height="50" as="geometry" />
        </mxCell>
        <mxCell id="KwuwYQE3O93vve9rL2iN-38" value="" style="endArrow=classic;html=1;rounded=0;entryX=1;entryY=1;entryDx=0;entryDy=0;exitX=0.5;exitY=0.5;exitDx=0;exitDy=0;exitPerimeter=0;" parent="1" source="KwuwYQE3O93vve9rL2iN-1" target="KwuwYQE3O93vve9rL2iN-36" edge="1">
          <mxGeometry width="50" height="50" relative="1" as="geometry">
            <mxPoint x="420" y="340" as="sourcePoint" />
            <mxPoint x="470" y="290" as="targetPoint" />
          </mxGeometry>
        </mxCell>
        <mxCell id="KwuwYQE3O93vve9rL2iN-39" value="" style="endArrow=classic;html=1;rounded=0;" parent="1" source="KwuwYQE3O93vve9rL2iN-3" edge="1">
          <mxGeometry width="50" height="50" relative="1" as="geometry">
            <mxPoint x="420" y="340" as="sourcePoint" />
            <mxPoint x="590" y="400" as="targetPoint" />
          </mxGeometry>
        </mxCell>
        <mxCell id="KwuwYQE3O93vve9rL2iN-40" value="View Invoice" style="ellipse;whiteSpace=wrap;html=1;" parent="1" vertex="1">
          <mxGeometry x="590" y="380" width="150" height="40" as="geometry" />
        </mxCell>
      </root>
    </mxGraphModel>
  </diagram>
</mxfile>
